# xmcd
#
# Track frame offsets:
#	150
#	15020
#	31347
#	47219
#	67721
#	86539
#	104497
#	126401
#	144927
#	170681
#	197929
#	213423
#	229405
#	245415
#
# Disc length: 3418
#
# Revision: 3
# Processed by: cddbd v1.5.1PL0 Copyright (c) Steve Scherf et al.
# Submitted via: Feurio! 1.67 - http://www.feurio.com
# Normalized: r2:DSETVAR2
#
DISCID=be0d580e
DTITLE=Various Artist - Love Ballads
DYEAR=1900
DGENRE=Blues
TTITLE0=The Cardigans - Lovefool
TTITLE1=Gianna Nannini - Ragazzi De L'Europa
TTITLE2=Inxs - Beatiful Girl
TTITLE3=Grace Jones - I've Seen Thet Face Before
TTITLE4=Chris De Burgh - Missing You
TTITLE5=Planet P Project - Ruby
TTITLE6=Black - Wonderful Life
TTITLE7=Lionel Richie - Hello
TTITLE8=Ringo Starr - La De Da
TTITLE9=10 CC - I'm Not In Love
TTITLE10=J.J. Cale - Magnolia
TTITLE11=Zucchero - Puro Amore
TTITLE12=Secret Service - Cry Softly (Time Is Morning)
TTITLE13=Santana - Morning In Marin
EXTD=
EXTT0=
EXTT1=
EXTT2=
EXTT3=
EXTT4=
EXTT5=
EXTT6=
EXTT7=
EXTT8=
EXTT9=
EXTT10=
EXTT11=
EXTT12=
EXTT13=
PLAYORDER=
